<mxfile host="app.diagrams.net" modified="2024-04-17T13:05:28.775Z" agent="Mozilla/5.0 (Windows NT 10.0; Win64; x64) AppleWebKit/537.36 (KHTML, like Gecko) Chrome/123.0.0.0 Safari/537.36" etag="BT8UNHKasoJlHGaJN-Fc" version="24.2.5" type="github">
  <diagram name="Page-1" id="e65b1w9q4XdeZEAYRKsy">
    <mxGraphModel dx="989" dy="541" grid="1" gridSize="10" guides="1" tooltips="1" connect="1" arrows="1" fold="1" page="1" pageScale="1" pageWidth="1100" pageHeight="850" math="0" shadow="0">
      <root>
        <mxCell id="0" />
        <mxCell id="1" parent="0" />
        <mxCell id="ec-M1FaaZMUl1S8-ASjT-53" value="" style="rounded=0;whiteSpace=wrap;html=1;fillColor=none;fontFamily=Comic Sans MS;" parent="1" vertex="1">
          <mxGeometry x="180" y="380" width="520" height="100" as="geometry" />
        </mxCell>
        <mxCell id="ec-M1FaaZMUl1S8-ASjT-54" value="Worker" style="rounded=0;fillColor=none;fontStyle=1;direction=west;horizontal=0;fontFamily=Comic Sans MS;" parent="1" vertex="1">
          <mxGeometry x="180" y="380" width="40" height="100" as="geometry" />
        </mxCell>
        <mxCell id="ec-M1FaaZMUl1S8-ASjT-55" value="" style="rounded=0;whiteSpace=wrap;html=1;fillColor=none;movable=1;resizable=1;rotatable=1;deletable=1;editable=1;locked=0;connectable=1;fontFamily=Comic Sans MS;" parent="1" vertex="1">
          <mxGeometry x="180" y="210" width="520" height="170" as="geometry" />
        </mxCell>
        <mxCell id="ec-M1FaaZMUl1S8-ASjT-56" value="Wrokaround" style="rounded=0;fillColor=none;fontStyle=1;direction=west;horizontal=0;movable=1;resizable=1;rotatable=1;deletable=1;editable=1;locked=0;connectable=1;fontFamily=Comic Sans MS;" parent="1" vertex="1">
          <mxGeometry x="180" y="210" width="40" height="170" as="geometry" />
        </mxCell>
        <mxCell id="ec-M1FaaZMUl1S8-ASjT-57" value="" style="rounded=0;whiteSpace=wrap;html=1;fillColor=none;movable=1;resizable=1;rotatable=1;deletable=1;editable=1;locked=0;connectable=1;fontFamily=Comic Sans MS;" parent="1" vertex="1">
          <mxGeometry x="180" y="100" width="520" height="110" as="geometry" />
        </mxCell>
        <mxCell id="ec-M1FaaZMUl1S8-ASjT-58" value="Clientes" style="rounded=0;fillColor=none;fontStyle=1;direction=west;horizontal=0;movable=1;resizable=1;rotatable=1;deletable=1;editable=1;locked=0;connectable=1;fontFamily=Comic Sans MS;" parent="1" vertex="1">
          <mxGeometry x="180" y="100" width="40" height="110" as="geometry" />
        </mxCell>
        <mxCell id="ec-M1FaaZMUl1S8-ASjT-59" value="Fluxograma de Avaliação WorkAround" style="rounded=0;fillColor=none;fontStyle=1;fontFamily=Comic Sans MS;" parent="1" vertex="1">
          <mxGeometry x="180" y="50" width="520" height="50" as="geometry" />
        </mxCell>
        <mxCell id="ec-M1FaaZMUl1S8-ASjT-66" value="Receber as informações e adicioná-las à conta do worker e nas avaliações do sistema" style="rounded=1;whiteSpace=wrap;html=1;fontFamily=Comic Sans MS;" parent="1" vertex="1">
          <mxGeometry x="500" y="250" width="140" height="72.5" as="geometry" />
        </mxCell>
        <mxCell id="ec-M1FaaZMUl1S8-ASjT-77" style="edgeStyle=orthogonalEdgeStyle;rounded=0;orthogonalLoop=1;jettySize=auto;html=1;exitX=0.949;exitY=0.502;exitDx=0;exitDy=0;exitPerimeter=0;entryX=0.5;entryY=0;entryDx=0;entryDy=0;" parent="1" source="ec-M1FaaZMUl1S8-ASjT-67" edge="1" target="ec-M1FaaZMUl1S8-ASjT-66">
          <mxGeometry relative="1" as="geometry">
            <mxPoint x="650" y="255" as="targetPoint" />
            <mxPoint x="580" y="170" as="sourcePoint" />
            <Array as="points">
              <mxPoint x="570" y="155" />
            </Array>
          </mxGeometry>
        </mxCell>
        <mxCell id="ec-M1FaaZMUl1S8-ASjT-67" value="Responder a avaliação de satisfação" style="shape=parallelogram;perimeter=parallelogramPerimeter;whiteSpace=wrap;html=1;fixedSize=1;fontFamily=Comic Sans MS;" parent="1" vertex="1">
          <mxGeometry x="380" y="125" width="120" height="60" as="geometry" />
        </mxCell>
        <mxCell id="ec-M1FaaZMUl1S8-ASjT-72" style="edgeStyle=orthogonalEdgeStyle;rounded=0;orthogonalLoop=1;jettySize=auto;html=1;entryX=0.5;entryY=1;entryDx=0;entryDy=0;exitX=1;exitY=0.5;exitDx=0;exitDy=0;" parent="1" source="ec-M1FaaZMUl1S8-ASjT-74" target="ec-M1FaaZMUl1S8-ASjT-67" edge="1">
          <mxGeometry relative="1" as="geometry" />
        </mxCell>
        <mxCell id="rBUfbS4RMsThFPB_z1cB-2" style="edgeStyle=orthogonalEdgeStyle;rounded=0;orthogonalLoop=1;jettySize=auto;html=1;entryX=0.5;entryY=0;entryDx=0;entryDy=0;" edge="1" parent="1" source="ec-M1FaaZMUl1S8-ASjT-74" target="rBUfbS4RMsThFPB_z1cB-1">
          <mxGeometry relative="1" as="geometry" />
        </mxCell>
        <mxCell id="ec-M1FaaZMUl1S8-ASjT-74" value="Worker e Cliente confirmam o término dos serviços no app" style="rounded=1;whiteSpace=wrap;html=1;fontFamily=Comic Sans MS;" parent="1" vertex="1">
          <mxGeometry x="250" y="271.25" width="120" height="60" as="geometry" />
        </mxCell>
        <mxCell id="rBUfbS4RMsThFPB_z1cB-3" style="edgeStyle=orthogonalEdgeStyle;rounded=0;orthogonalLoop=1;jettySize=auto;html=1;entryX=0.5;entryY=1;entryDx=0;entryDy=0;exitX=1;exitY=0.5;exitDx=0;exitDy=0;" edge="1" parent="1" source="rBUfbS4RMsThFPB_z1cB-1" target="ec-M1FaaZMUl1S8-ASjT-66">
          <mxGeometry relative="1" as="geometry">
            <Array as="points">
              <mxPoint x="490" y="430" />
              <mxPoint x="570" y="430" />
            </Array>
          </mxGeometry>
        </mxCell>
        <mxCell id="rBUfbS4RMsThFPB_z1cB-1" value="Responder a avaliação de satisfação" style="shape=parallelogram;perimeter=parallelogramPerimeter;whiteSpace=wrap;html=1;fixedSize=1;fontFamily=Comic Sans MS;" vertex="1" parent="1">
          <mxGeometry x="380" y="395" width="120" height="60" as="geometry" />
        </mxCell>
      </root>
    </mxGraphModel>
  </diagram>
</mxfile>
